<?xml version="1.0" encoding="UTF-8" standalone="no"?>
<svg width="320px" height="70px" viewBox="0 0 171 44" version="1.1" xmlns="http://www.w3.org/2000/svg" xmlns:xlink="http://www.w3.org/1999/xlink" xmlns:sketch="http://www.bohemiancoding.com/sketch/ns">
    <!-- Generator: Sketch 3.3.3 (12072) - http://www.bohemiancoding.com/sketch -->
    <title>miPLElogo</title>
    <desc>Created with Sketch.</desc>
    <defs></defs>
    <g id="Page-1" stroke="none" stroke-width="1" fill="none" fill-rule="evenodd" sketch:type="MSPage">
        <g id="miPLElogologo" sketch:type="MSLayerGroup" transform="translate(-59.000000, -14.000000)">
            <g id="miPLElogo" transform="translate(59.000000, 14.000000)" fill="#433125" sketch:type="MSShapeGroup">
                <path d="M28.5961538,27.2067308 L28.5961538,43.9375 L19.8846154,43.9375 L19.8846154,26.9759615 C19.8846154,24.5144108 19.5096191,22.7067365 18.7596154,21.5528846 C18.0096116,20.3990327 16.7980853,19.8221154 15.125,19.8221154 C13.4519147,19.8221154 11.9711603,20.4471091 10.6826923,21.6971154 C9.39422433,22.9471216 8.75,24.7836417 8.75,27.2067308 L8.75,43.9375 L0.0961538462,43.9375 L0.0961538462,12.8990385 L8.75,12.8990385 L8.75,16.4182692 C11.1346273,13.7259481 13.8653692,12.3798077 16.9423077,12.3798077 C18.903856,12.3798077 20.6826843,12.956725 22.2788462,14.1105769 C23.875008,15.2644288 25.076919,16.668261 25.8846154,18.3221154 C27.076929,16.4374906 28.6826822,14.9759667 30.7019231,13.9375 C32.7211639,12.8990333 34.7499898,12.3798077 36.7884615,12.3798077 C40.442326,12.3798077 43.3846042,13.4663353 45.6153846,15.6394231 C47.846165,17.8125109 48.9615385,20.9567102 48.9615385,25.0721154 L48.9615385,43.9375 L40.25,43.9375 L40.25,26.9759615 C40.25,22.2067069 38.5000175,19.8221154 35,19.8221154 C33.2692221,19.8221154 31.7692371,20.4471091 30.5,21.6971154 C29.2307629,22.9471216 28.5961538,24.7836417 28.5961538,27.2067308 L28.5961538,27.2067308 Z M65.4615385,43.9375 L56.8076923,43.9375 L56.8076923,12.8990385 L65.4615385,12.8990385 L65.4615385,43.9375 Z M56.0576923,5.34134615 C56.0576923,3.91826212 56.548072,2.71635106 57.5288462,1.73557692 C58.5096203,0.754802788 59.7115313,0.264423077 61.1346154,0.264423077 C62.5576994,0.264423077 63.7596105,0.754802788 64.7403846,1.73557692 C65.7211588,2.71635106 66.2115385,3.91826212 66.2115385,5.34134615 C66.2115385,6.76443019 65.7211588,7.96634125 64.7403846,8.94711538 C63.7596105,9.92788952 62.5576994,10.4182692 61.1346154,10.4182692 C59.7115313,10.4182692 58.5096203,9.92788952 57.5288462,8.94711538 C56.548072,7.96634125 56.0576923,6.76443019 56.0576923,5.34134615 L56.0576923,5.34134615 Z" id="mi"></path>
                <path d="M96.8269231,7.12980769 C99.6346294,9.47597327 101.038462,13.0913217 101.038462,17.9759615 C101.038462,22.8606013 99.6057836,26.4374887 96.7403846,28.7067308 C93.8749857,30.9759729 89.4807988,32.1105769 83.5576923,32.1105769 L76.4038462,32.1105769 L76.4038462,43.9375 L69.5961538,43.9375 L69.5961538,3.61057692 L83.4423077,3.61057692 C89.5577229,3.61057692 94.0192167,4.78364212 96.8269231,7.12980769 L96.8269231,7.12980769 Z M92.0096154,23.7740385 C93.3750068,22.3317236 94.0576923,20.2163601 94.0576923,17.4278846 C94.0576923,14.6394091 93.1923163,12.668275 91.4615385,11.5144231 C89.7307606,10.3605712 87.0192492,9.78365385 83.3269231,9.78365385 L76.4038462,9.78365385 L76.4038462,25.9375 L84.3076923,25.9375 C88.0769419,25.9375 90.6442239,25.2163534 92.0096154,23.7740385 L92.0096154,23.7740385 Z M109.057692,43.9375 L109.057692,3.61057692 L115.865385,3.61057692 L115.865385,37.4759615 L134.269231,37.4759615 L134.269231,43.9375 L109.057692,43.9375 Z M170.038462,3.61057692 L170.038462,10.0144231 L148.519231,10.0144231 L148.519231,20.6875 L167.846154,20.6875 L167.846154,26.7451923 L148.519231,26.7451923 L148.519231,37.5336538 L170.730769,37.5336538 L170.730769,43.9375 L141.711538,43.9375 L141.711538,3.61057692 L170.038462,3.61057692 Z" id="PLE" transform="translate(121.721154, 23.774038) scale(-1, -1) rotate(-180.000000) translate(-121.721154, -23.774038) "></path>
            </g>
            <rect id="Rectangle-1" stroke="#979797" opacity="0" fill="#D8D8D8" sketch:type="MSShapeGroup" x="0" y="0" width="300" height="75"></rect>
        </g>
    </g>
</svg>